<?xml version="1.0" encoding="utf-8"?>
<!-- Generator: Adobe Illustrator 24.1.0, SVG Export Plug-In . SVG Version: 6.00 Build 0)  -->
<svg version="1.1" id="Calque_1" xmlns="http://www.w3.org/2000/svg" xmlns:xlink="http://www.w3.org/1999/xlink" x="0px" y="0px"
	 viewBox="0 0 1000 1000" style="enable-background:new 0 0 1000 1000;" xml:space="preserve">
<style type="text/css">
	.st0{fill:#FFFFFF;}
	.st1{fill:#414C35;}
</style>
<g>
	<g>
		<path class="st0" d="M500.1,370.3c0,35.9-29.1,65-65,65s-65-29.1-65-65s-29.1-65-65-65s-65-29.1-65-65s-29.1-65-65-65
			s-65-29.1-65-65s29.1-65,65-65s65,29.1,65,65s29.1,65,65,65s65,29.1,65,65s29.1,65,65,65S500.1,334.4,500.1,370.3z"/>
		<path class="st0" d="M890,110.4c0,35.9-29.1,65-65,65s-65,29.1-65,65s-29.1,65-65,65s-65,29.1-65,65s-29.1,65-65,65
			c-35.9,0-65-29.1-65-65s29.1-65,65-65c35.9,0,65-29.1,65-65s29.1-65,65-65s65-29.1,65-65s29.1-65,65-65S890,74.5,890,110.4z"/>
		<circle class="st0" cx="175.3" cy="500.2" r="65"/>
		<circle class="st0" cx="305.2" cy="500.2" r="65"/>
		<circle class="st0" cx="435.2" cy="500.2" r="65"/>
		<circle class="st0" cx="565.1" cy="500.2" r="65"/>
		<path class="st0" d="M500.1,630.1c0,35.9-29.1,65-65,65s-65,29.1-65,65s-29.1,65-65,65s-65,29.1-65,65s-29.1,65-65,65
			s-65-29.1-65-65s29.1-65,65-65s65-29.1,65-65s29.1-65,65-65s65-29.1,65-65c0-35.9,29.1-65,65-65S500.1,594.3,500.1,630.1z"/>
		<path class="st0" d="M890,890c0,35.9-29.1,65-65,65s-65-29.1-65-65s-29.1-65-65-65s-65-29.1-65-65s-29.1-65-65-65
			c-35.9,0-65-29.1-65-65c0-35.9,29.1-65,65-65c35.9,0,65,29.1,65,65c0,35.9,29.1,65,65,65s65,29.1,65,65s29.1,65,65,65
			S890,854.1,890,890z"/>
		<circle class="st0" cx="695.1" cy="500.2" r="65"/>
		<circle class="st0" cx="825" cy="500.2" r="65"/>
	</g>
</g>
</svg>
